<svg xmlns="http://www.w3.org/2000/svg" viewBox="0 0 932.53 551.48"><defs><style>.cls-1{fill:#ebf3fa;}.cls-2{fill:#cfecf4;}.cls-3{fill:#2e96b3;}.cls-4{fill:#247087;}.cls-5{fill:#e59a83;}.cls-6{fill:#f5b59c;}.cls-7{fill:#294260;}.cls-8{fill:#0e3e66;}.cls-9{fill:#06539b;}.cls-10{fill:#30465e;}.cls-11{fill:#fff;}.cls-12{fill:#1f738d;}.cls-13{fill:#32a7c8;}.cls-14{fill:#467db6;}.cls-15{fill:#28405a;}.cls-16{fill:#ffbba2;}.cls-17{fill:#2a4862;}.cls-18{fill:#60b5de;}.cls-19{fill:#1c468a;}.cls-20{fill:#e0b594;}.cls-21{fill:#c69d7f;}.cls-22{fill:#a0795f;}.cls-23{fill:#163560;}.cls-24{fill:#e9f3fe;}.cls-25{fill:#afcdfb;}.cls-26{fill:#f1a34f;}.cls-27{fill:#699dee;}</style></defs><title>Recurso 1</title><g id="Capa_2" data-name="Capa 2"><g id="Слой_2" data-name="Слой 2"><path class="cls-1" d="M874.74,551.48l-820-.27s-.5-.59-1.42-1.73c-.37-.45-.8-1-1.29-1.63-1.29-1.66-3-3.92-5-6.74-.78-1.09-1.61-2.27-2.47-3.53-3.85-5.62-8.45-12.86-13.22-21.5-1.18-2.14-2.38-4.37-3.57-6.68l-.15-.29c-.4-.76-.79-1.53-1.19-2.31h0q-.87-1.73-1.74-3.51c-2.12-4.37-4.22-9-6.25-13.85l-.38-.92c-1.41-3.4-2.78-6.93-4.09-10.55-.11-.3-.22-.61-.34-.92l-.45-1.29-.39-1.11c-.32-.92-.64-1.85-.95-2.78l-.09-.28c-.09-.26-.18-.52-.26-.78-1-2.94-1.9-5.95-2.77-9-.42-1.47-.83-2.94-1.23-4.44-1.72-6.45-3.21-13.15-4.4-20.07Q1.82,429.84,1,422.07c0-.08,0-.16,0-.24A205.14,205.14,0,0,1,0,398.5c.52-34.94,10.19-73.45,36.17-112.82,13.23-20,26.81-36.56,40.58-50a213.43,213.43,0,0,1,17.56-15.39c29.32-22.91,59.16-32.74,88-33.15,1.16,0,2.32,0,3.48,0,34,.42,66.45,13.82,94.7,34.12,18.09,13,57.12,11,101.28-21.33q8.67-6.34,17.56-14.29C414,172.51,429,156,443.71,135.51c.92-1.26,1.82-2.54,2.73-3.83q10.47-14.85,20.69-32.42l.4-.68q3.21-5.47,6.75-10.56C527.68,11.11,635.5-1.33,722.43,37.34c6,2.65,11.83,5.54,17.56,8.67a228.08,228.08,0,0,1,55.37,42q4.92,5.1,9.5,10.56a203.93,203.93,0,0,1,22.69,33.1c.69,1.27,1.38,2.55,2.05,3.83,22.26,42.77,30.34,96.06,15.5,158.35C815,420.4,936.86,425,874.74,551.48Z"/><polygon class="cls-2" points="503.24 299.53 503.24 271.04 494.88 271.04 494.88 222.04 450.11 222.04 450.11 271.04 408.25 271.04 408.25 191.19 362.05 191.19 362.05 243.02 351.52 243.02 351.52 181.15 305.32 181.15 305.32 297.16 246.9 297.16 246.9 364.82 225.07 364.82 225.07 334.7 174.93 334.7 174.93 352.51 146.14 352.51 146.14 272.76 110.58 272.76 110.58 331.79 75.02 331.79 75.02 548.08 110.58 548.08 141.06 548.08 146.14 548.08 174.93 548.08 191.2 548.08 217.26 548.08 225.07 548.08 246.9 548.08 267.4 548.08 305.32 548.08 316.93 548.08 340.04 548.08 351.52 548.08 362.05 548.08 386.23 548.08 402.69 548.08 408.25 548.08 450.11 548.08 494.14 548.08 494.88 548.08 503.24 548.08 538.91 548.08 538.91 299.53 503.24 299.53"/><path class="cls-2" d="M533,9.29V547.94H508.91V0Q521.17,4.26,533,9.29Z"/><path class="cls-2" d="M924.8,397H885.46c3.66-30,9.64-49.77,9.73-50.06a2.52,2.52,0,0,0,.1-.73s1.33-8.21-12.74-8.41c-13.13-.18-19.52,5.25-20.68,7.24-3.69-16.83-8.85-30.78-15.22-32.75a32.65,32.65,0,0,0-9.19-1.22c-.34-1-1.17-3.15-2.5-3.67a1.85,1.85,0,0,0-.5-.07,41.88,41.88,0,0,1-2.74-8.78c0-.14.1-.28.14-.43,5.17-6.91,8.18-21.27,5.76-23.77-9-9.27-40.83-3.26-28.52,7.68-.15.4-.27.8-.38,1.19-1,3.72.44,22.64,5.11,23.14a31.07,31.07,0,0,0,3.65-.11c.07,1,.2,2.45.34,4.17-1.07.25-1.75.42-1.8.44a12.13,12.13,0,0,0-5.28,4.52h0s-15.89,8.29-18,16.1-9.72,45.67-12.66,48.32-36.7,8.81-36.7,8.81a14.74,14.74,0,0,0-1,1.28c-2.32-1.27-6-3.2-7.59-3.43-2.12-.31-11.4,7.37-12,9.38-1,.67-1.63,1.16-1.63,1.16h-5.2v-1.45H706l0,0h5.23c-.44,0-3.83-.09-4.31-2.64a3.34,3.34,0,0,1-.06-.65c0-.4.18-2.49.47-5.77.08-.83.16-1.75.25-2.73.17-1.86.37-4,.59-6.27l.16-1.11h68.78l3.9-2.3h0l-5.24-19.65h0l-.29-1.08h.06l-22.72-84.85,0-.07H612.44v.08l-2.05.68L636,376.37h42.2l-1.33,15.75s-.7,4.86,2.91,4.87h5.78v0H551.22l.22,0h.48a2,2,0,0,0,2-2.23l-2.12-21.12h37.79l11.27-91.82h-124l-9.68,78.91c-1.8-6.63-3.21-12.18-3.21-12.18-1-2.54-5-16.93-7-19.1h0a10.2,10.2,0,0,0-4.35-2,4.52,4.52,0,0,0,.67-2.76c-.46-5.57,6-5.1,10-11.51,3.48-5.59-2.74-7,.59-16.05,2.44-6.64-3.92-8.25-3.73-13.79,0,0-.81-10.3-15.63-7.62-3.92.7-6.61-6.28-13-3.79-13.81,5.36-14.62-1.72-18.61,8.21-1.67,4.16-12.3,9-9.05,16.19s-2.19,12,1.63,17.64c2,2.92,1.17,8.12,10.48,8.31a10.34,10.34,0,0,1,5,2.15c-3,.59-6.94,1.67-9.69,3.6h0a9.77,9.77,0,0,0-1.7,1.49l-.07.09a9.69,9.69,0,0,0-1.7,3.37h0s-2,5.31-4.16,12.11a33,33,0,0,0-7.51-.72l-1,0c-.72,0-1.48-.05-2.26,0-12.61.19-11.42,8.13-11.42,8.13a2.84,2.84,0,0,0,.09.7c.08.26,4.88,17.4,8.17,43.78H343.17a7.75,7.75,0,0,0-7.73,7.73h0a7.76,7.76,0,0,0,7.73,7.74h31.91l-.28,2.1-9,66.85-8.39,62.49a1.25,1.25,0,0,0,1.26,1.4,1.77,1.77,0,0,0,1.76-1.45l9.73-55.13,10.88-61.67h0l2.57-14.59h7.64c1,11.06,1.53,23.21,1.41,36.06,0,.06,0,.11,0,.17a2,2,0,0,0-.08.55v1.28a1.87,1.87,0,0,0,0,.34c0,.21,0,.4,0,.58h.18a2,2,0,0,0,1.77,1.08h.45a.7.7,0,0,0-.05.25c0,.44,2.94,35.34-8.45,92.21h2.13c15.67-45.63,14.92-85.78,14.25-92.46h10.42a.7.7,0,0,0-.05.25c0,.44,2.94,35.34-8.45,92.21H407c15.67-45.63,14.92-85.78,14.24-92.46h40.69c-.68,6.68-1.43,46.83,14.24,92.46h2.13c-11.39-56.87-8.46-91.77-8.45-92.21a.7.7,0,0,0-.05-.25h10.31c-.68,6.68-1.43,46.83,14.24,92.46h2.13c-8.17-40.77-9-70.25-8.77-83.84.22,2.42.48,5,.9,7.71,1.68,10.8,29.84,54.51,29.84,54.51l.75.22c.3,1.11.57,2.12.76,2.92.6,2.42-.28,5.12-1.05,7.18a13.52,13.52,0,0,0-1,3.48c-.32,3.45,4.48,4.29,10,4.56s3.88,1.42,11.49,2.8,10.67-.71,11.22-1.74c.23-.44-.47-1-1.67-1.64.84.09,1.72.15,2.62.2,5.55.27,3.88,1.41,11.49,2.79s10.67-.71,11.22-1.73-3.05-2.35-6.82-4l-1.43-.62c-4.25-1.86-6.63-5.67-9.94-9.2-1.42-1.52-2.81-4.55-3.9-7.41a5.86,5.86,0,0,0,1.71-.82s-20.76-95.16-33.71-103.33c-1.85-1.17-4.85-2.07-8.63-2.74.19-.18-.48-.92-1.52-1.86H783.72c-21.11,4.61-43.12,10.54-46.86,15.85-7.48,10.63-19.14,101.21-19.14,101.21l.32.09c-4.78,5.48-12.56,8.51-17.6,9.39-6.22,1.08-6.36,6.21-6.36,6.21l21.3.13s16.69,0,17.14,0c2.37-.17,3.61-8.83,4.14-14a7.18,7.18,0,0,0,1-.3s27.84-71.77,30.1-79.53a3.49,3.49,0,0,1,2.25-2,2.11,2.11,0,0,0,.8.16h5.55a.6.6,0,0,0,0,.26c0,.08.12,1.45.22,4a13,13,0,0,0-3.08,6.54c-.54,4.91.21,22.55,1.06,38.54-1.2,10.85-3,23.3-5.74,37.18a35,35,0,0,1-8.56,2.81c-6.22,1.08-6.36,6.21-6.36,6.21l13,.08s0,0,0,0h2.37l0,0,5.88,0h14.39v0c1.56,0,2.64,0,2.75,0,2.84-.21,4.06-12.6,4.37-16.53a3.65,3.65,0,0,0,1.45-.83s.49-6.44,1.11-15.26a256.21,256.21,0,0,0,6.5-51.85c6.87-3,21.75-7.7,33.87-11.16h11.23c-.75,6.92-1.59,48.45,15.9,95.67h2.37c-12.71-58.85-9.44-95-9.43-95.41a.6.6,0,0,0,0-.26h11.63c-.75,6.92-1.59,48.45,15.9,95.67h2.37c-12.71-58.85-9.44-95-9.43-95.41a.6.6,0,0,0-.05-.26h.59a2.14,2.14,0,0,0,1.87-1.11h.22c0-.19,0-.42,0-.65a2.33,2.33,0,0,0,0-.38v-1.16a2,2,0,0,0-.1-.6v-.22c-.12-11.68.36-22.8,1.2-33.08h7.6l2.11,12L906,494.9l8.65,49a1.77,1.77,0,0,0,1.76,1.45,1.25,1.25,0,0,0,1.26-1.4l-6.4-47.63-10.78-80.36-.47-3.45H924.8a7.76,7.76,0,0,0,7.73-7.74h0A7.75,7.75,0,0,0,924.8,397ZM639,374.07ZM509,393.63a1.73,1.73,0,0,0-1.7,1.24A1.7,1.7,0,0,0,508.9,397H481.34c-1.48-1.54-2.9-3-4.15-4.4.27-.4.54-.78.78-1.16,1.25-1.88,2.13-3.45,2.46-3.82,1-1.12-4.08-3.34-6.16-5-.67-.54-2-4.22-3.42-9h55.44l-.52,15.91a4.2,4.2,0,0,1-4.2,4.07H509Zm33.17,127.06c.58,2.06,1.13,4.06,1.47,5.45.6,2.42-.28,5.12-1.06,7.18a13.91,13.91,0,0,0-.95,3.48,3,3,0,0,0,.09,1.05c-3.78-2-6.08-5.5-9.19-8.81a18.2,18.2,0,0,1-2.74-4.59,5.81,5.81,0,0,0,1.34-.62s-2-11.13-5.08-26.14c7.76,12.06,15.28,22.79,15.28,22.79ZM807.38,374.11c3.08,10.87,3.2,18,2.64,22.91H793.47A258.4,258.4,0,0,0,807.38,374.11ZM739.93,397h0Zm33.37,136.6c1-3.11,1.88-6.17,2.72-9.19.13,2.17.22,3.44.22,3.44s1,.2,2.65.45A23.48,23.48,0,0,1,773.3,533.62Z"/><path class="cls-3" d="M392.5,511.76c-5.68,20.54-47.67,32.63-93.6,39.72H127.5c-41.31-19.56-41.26-42.89-44.57-107.3-6.85-133,65.53-197.28,97.81-186.68,1.34.44,2.71.92,4.09,1.47,9.38,3.65,19.89,10.09,30.11,25.43,0,0,32.08,51.7,58.48,82.54,8.5,9.93,16.41,17.7,22.47,20.88a1,1,0,0,0,.21.11c.32.17.64.31.95.45,14,6.19,33.7,19.17,51.71,35.54h0C376.69,449.3,400.51,482.81,392.5,511.76Z"/><path class="cls-4" d="M348.76,418.71c-24,7.14-147.72,41.66-176.83,5.05-21.07-26.51-8-94.43,3.69-138.38,4.77-18,28.59-22.1,39-6.65l.31.45s32.08,51.71,58.48,82.54c7.64,9.75,15.17,17.26,22.47,20.89a1,1,0,0,0,.21.1,10.19,10.19,0,0,0,.95.45C311,389.36,330.75,402.33,348.76,418.71Z"/><path class="cls-5" d="M281.5,295.82s7,10.4,11,32.26c3.51,19.14,6.59,26.21,11.66,30.14s33.31,15.52,33.31,15.52l-2.11,4.94S294,373,289.34,366.13s-22.37-47.8-21-57.21S281.5,295.82,281.5,295.82Z"/><path class="cls-6" d="M382.86,524.17c-.37,4,5.25,5,11.76,5.35s4.54,1.65,13.46,3.27,12.5-.83,13.14-2-3.57-2.74-8-4.63l-1.67-.73c-5-2.18-7.76-6.64-11.64-10.78-3.68-3.92-7.17-16.46-7.17-16.46l-12.12-2.59s3.41,11.29,4.59,16.11c.69,2.83-.33,6-1.24,8.41A16,16,0,0,0,382.86,524.17Z"/><path class="cls-7" d="M394.62,529.52c6.51.32,4.54,1.65,13.46,3.27s12.5-.83,13.14-2-3.57-2.74-8-4.63l-.07.07a25.38,25.38,0,0,1-13.51.16c-5.9-1.6-11.61-5.13-15.67-6.27a16,16,0,0,0-1.12,4.08C382.49,528.21,388.11,529.19,394.62,529.52Z"/><path class="cls-8" d="M262.14,380.42s80.56-6.06,95.72,3.51S397.35,505,397.35,505a9.82,9.82,0,0,1-4.85,1.57c-3.12.34-10-1.5-10-1.5s-34.95-49.88-37.41-62.44-1.87-23.78-7.47-24.08-75.5,8.49-86.07-10.13-1.83-37.06-1.83-37.06Z"/><path class="cls-6" d="M352,537.11c-.37,4,5.25,5,11.76,5.35s4.54,1.65,13.46,3.27,12.49-.83,13.14-2-3.57-2.74-8-4.63l-1.67-.73c-5-2.18-7.77-6.65-11.65-10.78-3.67-3.92-7.16-16.46-7.16-16.46l-12.12-2.59s3.4,11.29,4.58,16.11c.7,2.83-.33,6-1.24,8.41A16,16,0,0,0,352,537.11Z"/><path class="cls-7" d="M363.8,542.46c6.5.32,4.54,1.65,13.46,3.27s12.49-.83,13.14-2-3.57-2.74-8-4.63l-.07.07a25.38,25.38,0,0,1-13.51.16c-5.91-1.6-11.61-5.13-15.68-6.27a16,16,0,0,0-1.11,4.08C351.67,541.15,357.29,542.13,363.8,542.46Z"/><path class="cls-9" d="M246.37,385.41s71.56,3.39,86.34,13.54,34.74,122.5,34.74,122.5a9.8,9.8,0,0,1-4.91,1.38c-3.13.22-9.92-1.88-9.92-1.88s-33-51.21-34.95-63.86-.94-23.83-6.53-24.35-75.77,5.55-85.61-13.47S246.37,385.41,246.37,385.41Z"/><path class="cls-10" d="M271.87,227.94c-3.18-2.1-7.12-2.56-9.9-2.59a4.77,4.77,0,0,1,2.18-.86c-1.7-.37-5.64,1.08-5.64,1.08-23.25-10.79-29.34,24.1-29.39,32.3s-.61,17.59-13,24.12c-24.4,12.84-6.3,39.31-6.3,39.31.18.12,9.69,19,9.69,19-.17-6.64,32.59-39.42,49.17-48.79,4.24-5.43,6.29-15.39,6.44-16.18-1.2,7.93-2.86,12.31-4.24,14.75C285.14,278.62,280.28,233.49,271.87,227.94Z"/><path class="cls-6" d="M268.25,286.75l-1.38-.54c0-1,.09-2.18.17-3.33.36-5.23,1.13-10.76,1.13-10.76l-17.41-4.67-1-.27a54,54,0,0,1-3.41,16.48c-1.8.08-2.95.19-2.95.19-.29,1,7.4,16.95,17.56,17.36C264.24,301.35,273.34,288.88,268.25,286.75Z"/><path class="cls-5" d="M268.17,272.12s-.77,5.53-1.13,10.76c-9.86-.94-14.48-10.29-16.28-15.43Z"/><path class="cls-10" d="M249.06,265.41s-4.63-8.52-5.4-15.59c-.56-5,3.22-23.38,21.63-19.48A25.23,25.23,0,0,1,275.5,235c3.86,3,9.29,9.27,1.7,25l-2.05,5.34Z"/><path class="cls-6" d="M271.13,277.3s-23.38-1.18-22.43-15.73-1.42-24.5,13.55-24.37,17.51,5.88,18.37,10.81S277.24,277.23,271.13,277.3Z"/><path class="cls-10" d="M272.92,237.55s-7.54,16.65-17.52,18.52-14.07-1-14.07-1a27.87,27.87,0,0,0,10.19-15.81S268.63,229.11,272.92,237.55Z"/><path class="cls-10" d="M271.24,238.83s4.52,4.13,5.44,7.92.93,11.44,3.17,11.33c0,0,5.59-11.28.62-18.21C275.19,232.53,271.24,238.83,271.24,238.83Z"/><path class="cls-11" d="M294.53,381.64c-1.89,2.26-7.8,2.95-14.11,4-5,.82-10.19,1.85-13.91,4-8.43,4.95-36,21.68-44,20.92-3.13-.3-2.55-6.27-.65-14.2,3-12.52,9.23-29.9,9.23-37.46,0-4.13,1.37-13.89,3.21-25.05q.23-1.35.45-2.73c3.63-21.7,8.65-47.29,8.65-47.29s5.6,12.22,16.51,12.22,8.38-9.32,8.38-9.32,10,1.17,12.31,3.7,8.32,13.49,9.51,16.48c0,0,.24,3.8-9.17,5.61,0,0,2.29,10.32,2.56,17.2.2,5.08-3.47,21-4.52,30.88-.38,3.5-.43,6.25.14,7.5.73,1.6,3.09,3.19,5.77,4.75C290.17,376,296.78,379,294.53,381.64Z"/><path class="cls-2" d="M284.85,372.87c6,10.3-16.39,13.39-20.1,15.57-8.43,4.95-34.21,22.9-42.28,22.14-3.13-.3-2.55-6.27-.65-14.2,3-12.52,9.23-29.9,9.23-37.46,0-4.13,1.37-13.89,3.21-25.05l9.71-9.33s10.42,26.91,20.34,31.32a83.53,83.53,0,0,0,14.63,4.76c-.38,3.5-.43,6.25.14,7.5C279.81,369.72,282.17,371.31,284.85,372.87Z"/><path class="cls-6" d="M240.37,291.9s-8.31-5-16.34,4.53,5.71,78,17.61,81.5c13.22,3.91,51.42-.62,51.42-.62l-.74-6s-40.66-7.8-42.35-10S244.6,293,240.37,291.9Z"/><path class="cls-11" d="M243.36,283.85s-17.06,1.54-22,7.15-6.4,20.82-6.4,20.82,15,12.13,33.13,7.42Z"/><rect class="cls-12" x="297.05" y="380.51" width="22.54" height="2.66"/><path class="cls-12" d="M314.8,382.8c.22-.88,20.71-33.06,20.71-33.06h45.61l-22.88,32.2Z"/><path class="cls-13" d="M316.72,383.17c.22-.88,20.78-33.43,20.78-33.43h43.62l-21.76,33.43Z"/><path class="cls-12" d="M355.17,366.56a3.65,3.65,0,0,1-3.18,2.36,1.62,1.62,0,0,1-1.54-2.36,3.65,3.65,0,0,1,3.17-2.36A1.63,1.63,0,0,1,355.17,366.56Z"/><path class="cls-6" d="M289,371s13.24-2.56,14.74-1.92,9.82,8.12,9,9.61-4.28,2.56-8.12,1.28-12.17-1.92-13.66-3.84A12.53,12.53,0,0,1,289,371Z"/><path class="cls-14" d="M542.3,412.29s-22.14,11-23.44,22.92,3.45,84.09,3.45,84.09,23.23,4.4,27.33.12c0,0,5.78-77.24,4.76-80.72s63.74-22.54,69.49-22.42S542.3,412.29,542.3,412.29Z"/><path class="cls-14" d="M547.94,519s-1.35,21.8-5.57,22.11c-.56,0-21.39,0-21.39,0L494.39,541s.18-6.41,7.95-7.76,20.78-6.82,25.49-17.09C532.78,505.33,547.94,519,547.94,519Z"/><path class="cls-14" d="M473.32,519s-1.35,21.8-5.57,22.11c-.56,0-21.39,0-21.39,0L419.77,541s.17-6.41,7.94-7.76,20.79-6.82,25.49-17.09C458.16,505.33,473.32,519,473.32,519Z"/><path class="cls-15" d="M635.51,373.47l-.45.13a8,8,0,0,0-4.07-5.22c-16.42-9.29-47.67-3-47.67-3S482.51,381.8,473.16,395.07,449.28,521.4,449.28,521.4s17.63,4.61,24.92,1.87c0,0,34.74-89.58,37.55-99.27,2.45-8.4,50.37-2.27,74.55-4,14.5-.46,37.18-1.5,43.35-3.64C638.92,413.17,635.51,373.47,635.51,373.47Z"/><path class="cls-16" d="M599.77,252.34l-8.37,10.43-15.86.78c-.16-1.51-.71-8.08-1.17-13.69-.38-4.58-.7-8.51-.7-8.51l16.75-14.66c0,.09.87,5,1,5.67C593.68,245,599.77,252.34,599.77,252.34Z"/><path class="cls-14" d="M572,247.47c.35-.13,21.43-5.17,23.65-4.31s3.32,5.29,3.32,5.29l-34.36,5.92S567.53,249.07,572,247.47Z"/><path class="cls-16" d="M569.24,241.85s22.47,1,22.89-13,3.62-23.3-10.72-24.55-17.28,4-18.56,8.65S563.4,241.23,569.24,241.85Z"/><path class="cls-17" d="M563.34,211.51s5.29,14.78,8.25,13.3,5.67-2.71,6.4,2-2.21,11.08,7.64,9.36,17.19-30.23,13.3-34.24C587.72,190.32,547.94,197.84,563.34,211.51Z"/><path class="cls-18" d="M635.51,373.47c-5.67,6.7-53.93,5-68.07-.7a9.67,9.67,0,0,1-2.48-1.34c-8.31-6.65,10.45-12.49-10.53-63.18l0-.07c-15-36.43.91-48.23,11-54.07,0,0,28.74-8.84,44.82-3.86C631.08,256.72,641.6,366.27,635.51,373.47Z"/><path class="cls-14" d="M584.77,348.6c-.95,6.9-6.51,23.92-17.33,24.17a9.67,9.67,0,0,1-2.48-1.34c-8.31-6.65,10.45-12.49-10.53-63.18l0-.07c3.51-2.41,9.19-5.14,12.88-1C573,313.62,585.75,341.45,584.77,348.6Z"/><path class="cls-19" d="M453.71,356s11-8.52,16.49-5.84S477,356,477,356Z"/><path class="cls-20" d="M541.26,405.56H369.48a9.91,9.91,0,0,1-9.89-9.88h0a9.91,9.91,0,0,1,9.89-9.88H541.26a9.91,9.91,0,0,1,9.88,9.88h0A9.91,9.91,0,0,1,541.26,405.56Z"/><path class="cls-21" d="M427.1,405.49l-5.44,21.25h0l-15,58.7-13.44,52.47a2.39,2.39,0,0,1-2.43,1.37c-1.06,0-1.88-.62-1.74-1.32l11.59-59.49L413,414.85l1.87-9.6Z"/><path class="cls-22" d="M421.66,426.74c.71-9.13-8.66-11.89-8.66-11.89l1.87-9.6,12.23.24Z"/><path class="cls-21" d="M490.4,405.49l5.45,21.25h0l15,58.7,13.44,52.47a2.39,2.39,0,0,0,2.43,1.37c1.06,0,1.88-.62,1.74-1.32l-11.59-59.49L504.5,414.85l-1.87-9.6Z"/><path class="cls-22" d="M495.85,426.74c-.72-9.13,8.65-11.89,8.65-11.89l-1.87-9.6-12.23.24Z"/><polygon class="cls-19" points="495.23 385.12 425.02 385.12 412.36 340.99 482.46 340.99 495.23 385.12"/><rect class="cls-23" x="425.26" y="383.4" width="91.78" height="1.72"/><path class="cls-23" d="M447.31,362.34a2,2,0,0,1,2-2.81,4,4,0,0,1,3.61,2.81,2,2,0,0,1-2,2.81A4,4,0,0,1,447.31,362.34Z"/><polygon class="cls-24" points="492.21 382.3 426.13 382.3 414.91 342.37 481.21 342.37 482.51 347.1 483.07 349.12 483.72 351.48 492.21 382.3"/><polygon class="cls-25" points="482.51 347.1 416.24 347.1 414.91 342.37 481.21 342.37 482.51 347.1"/><path class="cls-24" d="M416.66,344.51a.45.45,0,0,1,.44-.59.8.8,0,0,1,.74.59.45.45,0,0,1-.44.59A.8.8,0,0,1,416.66,344.51Z"/><path class="cls-24" d="M418.62,344.51a.45.45,0,0,1,.45-.59.82.82,0,0,1,.74.59.45.45,0,0,1-.45.59A.82.82,0,0,1,418.62,344.51Z"/><path class="cls-24" d="M420.74,344.51a.45.45,0,0,1,.44-.59.8.8,0,0,1,.74.59.45.45,0,0,1-.44.59A.8.8,0,0,1,420.74,344.51Z"/><path class="cls-25" d="M433.2,357.72H422.9a.8.8,0,0,1-.73-.58h0a.44.44,0,0,1,.44-.57h10.3a.79.79,0,0,1,.72.57h0A.44.44,0,0,1,433.2,357.72Z"/><path class="cls-25" d="M433.75,359.93h-10.3a.8.8,0,0,1-.73-.58h0a.44.44,0,0,1,.44-.58h10.3a.79.79,0,0,1,.72.58h0A.44.44,0,0,1,433.75,359.93Z"/><path class="cls-25" d="M434.3,362.13H424a.8.8,0,0,1-.72-.58h0a.44.44,0,0,1,.44-.58H434a.79.79,0,0,1,.72.58h0A.44.44,0,0,1,434.3,362.13Z"/><path class="cls-25" d="M451.62,357.72H441.31a.8.8,0,0,1-.72-.58h0a.44.44,0,0,1,.44-.57h10.3a.79.79,0,0,1,.72.57h0A.44.44,0,0,1,451.62,357.72Z"/><path class="cls-25" d="M452.16,359.93h-10.3a.8.8,0,0,1-.72-.58h0a.44.44,0,0,1,.43-.58h10.31a.8.8,0,0,1,.72.58h0A.44.44,0,0,1,452.16,359.93Z"/><path class="cls-25" d="M452.71,362.13h-10.3a.79.79,0,0,1-.72-.58h0a.44.44,0,0,1,.43-.58h10.31a.8.8,0,0,1,.72.58h0A.44.44,0,0,1,452.71,362.13Z"/><path class="cls-25" d="M469.33,357.72H459a.79.79,0,0,1-.72-.58h0a.43.43,0,0,1,.43-.57H469a.78.78,0,0,1,.72.57h0A.44.44,0,0,1,469.33,357.72Z"/><path class="cls-25" d="M469.88,359.93h-10.3a.78.78,0,0,1-.72-.58h0a.44.44,0,0,1,.43-.58h10.3a.79.79,0,0,1,.72.58h0A.44.44,0,0,1,469.88,359.93Z"/><path class="cls-25" d="M470.43,362.13h-10.3a.8.8,0,0,1-.73-.58h0a.44.44,0,0,1,.44-.58h10.3a.79.79,0,0,1,.72.58h0A.44.44,0,0,1,470.43,362.13Z"/><path class="cls-25" d="M478.86,350.26l.51,2a.52.52,0,0,1-.51.68H420.58a.93.93,0,0,1-.84-.68l-.51-2a.52.52,0,0,1,.51-.68H478A.92.92,0,0,1,478.86,350.26Z"/><path class="cls-26" d="M461.05,349.58l.84,3.39H420.58a.93.93,0,0,1-.84-.68l-.51-2a.52.52,0,0,1,.51-.68Z"/><path class="cls-27" d="M469.18,350.91h-.65l-.06-.26h1l.05.23-.33,1.14h-.34Z"/><path class="cls-27" d="M469.79,351.34c-.09-.4.07-.71.44-.71a.86.86,0,0,1,.78.71c.1.39-.06.71-.43.71A.88.88,0,0,1,469.79,351.34Zm.91,0c-.06-.25-.23-.44-.41-.44s-.25.18-.19.44.23.43.41.43S470.77,351.59,470.7,351.34Z"/><path class="cls-27" d="M471.13,351a.26.26,0,0,1,.25-.35.45.45,0,0,1,.41.35c0,.2,0,.36-.24.36A.46.46,0,0,1,471.13,351Zm1.05-.33h.24l-.66,1.37h-.24Zm-.59.33a.21.21,0,0,0-.17-.17c-.09,0-.11.08-.09.17s.1.18.18.18S471.61,351.08,471.59,351Zm.56.71c0-.2,0-.35.24-.35a.45.45,0,0,1,.42.35.26.26,0,0,1-.25.35A.45.45,0,0,1,472.15,351.69Zm.46,0c0-.1-.1-.18-.18-.18s-.1.08-.08.18a.2.2,0,0,0,.17.17C472.61,351.86,472.63,351.78,472.61,351.69Z"/><path class="cls-25" d="M456.21,378.19h-5.16a1.79,1.79,0,0,1-1.64-1.31l-2.5-10a1,1,0,0,1,1-1.31h5.16a1.79,1.79,0,0,1,1.64,1.31l2.5,10A1,1,0,0,1,456.21,378.19Z"/><path class="cls-25" d="M465.15,378.19H460a1.79,1.79,0,0,1-1.64-1.31l-2.5-10a1,1,0,0,1,1-1.31H462a1.79,1.79,0,0,1,1.64,1.31l2.5,10A1,1,0,0,1,465.15,378.19Z"/><path class="cls-25" d="M473.93,378.19h-5.17a1.8,1.8,0,0,1-1.64-1.31l-2.49-10a1,1,0,0,1,1-1.31h5.17a1.8,1.8,0,0,1,1.64,1.31l2.49,10A1,1,0,0,1,473.93,378.19Z"/><path class="cls-25" d="M446,378.19H428.52a3,3,0,0,1-2.75-2.2l-2.06-8.24a1.67,1.67,0,0,1,1.65-2.2h17.49a3,3,0,0,1,2.75,2.2l2.06,8.24A1.66,1.66,0,0,1,446,378.19Z"/><path class="cls-27" d="M442.63,368.71H426.29a.69.69,0,0,1-.63-.5h0a.39.39,0,0,1,.38-.5h16.34a.69.69,0,0,1,.63.5h0A.38.38,0,0,1,442.63,368.71Z"/><path class="cls-27" d="M443.11,370.64H426.77a.68.68,0,0,1-.62-.5h0a.38.38,0,0,1,.37-.5h16.34a.68.68,0,0,1,.63.5h0A.38.38,0,0,1,443.11,370.64Z"/><path class="cls-27" d="M443.59,372.57H427.25a.68.68,0,0,1-.62-.51h0a.38.38,0,0,1,.37-.5h16.34a.69.69,0,0,1,.63.5h0A.38.38,0,0,1,443.59,372.57Z"/><path class="cls-27" d="M431.65,374.72h-3.86a.68.68,0,0,1-.63-.5h0a.38.38,0,0,1,.38-.5h3.86a.69.69,0,0,1,.62.5h0A.38.38,0,0,1,431.65,374.72Z"/><path class="cls-18" d="M571.4,296.86c2.11,16.2-27.6,55.11-27.6,55.11l-77,21.17c-1.55-5,3.39-10.47,3.39-10.47s53.33-24.84,57-28.15,18.3-51.06,20.79-60.84c3.2-12.57,17.44-19.57,17.44-19.57S569.29,280.66,571.4,296.86Z"/><path class="cls-16" d="M472.68,363.36s-10.46-.44-13.24.53-9.61,17.83-7.38,17.69,9.45-8.92,11.22-8.81,4,1.8,5.46,1.06,6.43-3.33,6.43-3.33Z"/><path class="cls-3" d="M503.65,492.1c1.78,80.59,47.72,48.89,93.65,56l173.56,3.4c41.31-19.56,39-62.55,42.36-127,6.85-133-93.85-179.88-104.07-164.55,0,0-26.77,53.71-53.16,84.55-8.5,9.93-75.76,41.15-76.07,41.29-14,6.19-14.52,2.08-32.53,18.46h0C519.46,429.64,503,462.07,503.65,492.1Z"/></g></g></svg>